<?xml version="1.0" encoding="utf-8" ?>
<svg baseProfile="full" height="300mm" version="1.1" viewBox="0,0,200,300" width="200mm" xmlns="http://www.w3.org/2000/svg" xmlns:ev="http://www.w3.org/2001/xml-events" xmlns:xlink="http://www.w3.org/1999/xlink"><defs /><rect fill="#222222" height="300" width="200" x="0" y="0" /><text fill="#FFFFFF" style="font-size:12px; font-family:Arial; font-weight:bold;" x="10" y="20">Over 5km Runs</text><text fill="#FFFFFF" style="font-size:4px; font-family:Arial" x="10" y="280">ATHLETE</text><text fill="#FFFFFF" style="font-size:9px; font-family:Arial" x="10" y="290">Flywith24</text><text fill="#FFFFFF" style="font-size:4px; font-family:Arial" x="65" y="280">SPECIAL TRACKS</text><rect fill="yellow" height="2.6" width="2.6" x="65" y="283" /><text fill="#FFFFFF" style="font-size:3px; font-family:Arial" x="70" y="285.5">Over 10.0 km</text><rect fill="red" height="2.6" width="2.6" x="65" y="287" /><text fill="#FFFFFF" style="font-size:3px; font-family:Arial" x="70" y="289.5">Over 20.0 km</text><text fill="#FFFFFF" style="font-size:4px; font-family:Arial" x="120" y="280">STATISTICS</text><text fill="#FFFFFF" style="font-size:3px; font-family:Arial" x="120" y="285">Number: 14</text><text fill="#FFFFFF" style="font-size:3px; font-family:Arial" x="120" y="290">Weekly: 2.0</text><text fill="#FFFFFF" style="font-size:3px; font-family:Arial" x="141" y="285">Total: 73.1 km</text><text fill="#FFFFFF" style="font-size:3px; font-family:Arial" x="141" y="290">Avg: 5.2 km</text><text fill="#FFFFFF" style="font-size:3px; font-family:Arial" x="167" y="285">Min: 5.0 km</text><text fill="#FFFFFF" style="font-size:3px; font-family:Arial" x="167" y="290">Max: 6.0 km</text><polyline fill="none" points="31.9934446697589,37.40296248687082 31.632715621730313,36.10808405117132 30.505437346408144,32.69429363479139 30.1897994291503,32.39999999999418 29.69379698811099,32.63543492520694 29.513432464096695,32.870869712060085 29.513432464096695,33.28288025781512 30.279981691390276,35.931509395712055 33.39126973133534,44.46586234631832 34.65382139966823,47.290987542801304 35.736008543754,50.174949034815654 36.18691985402256,51.822917740704725 36.457466640044004,53.11774555573356 36.95346908131614,55.00112402357627 37.359289260348305,57.237624493514886 37.44947152235545,58.47357994140475 37.494562653126195,61.180897643993376 37.44947152235545,62.06371469187434 37.17892473633401,63.82934297178872 36.592740033054724,66.47777085134294 36.14182872301899,68.12567272610613 34.969459316693246,71.00948475324549 34.51854800665751,72.42195656595868 33.9774544343818,74.89377029697062 33.9774544343818,75.3057377745572 34.15781895839609,75.54114757219213 34.74400366167538,75.54114757219213 35.05964157870039,75.36459023680072 35.28509723371826,74.95262281954638 35.7810996749904,72.12769201435731 36.36728437803686,70.0678341210878 37.088742474326864,68.24337974458467 37.494562653126195,66.41891708783805 37.90038283239119,64.82986222126056 38.261111880419776,62.82882123190211 38.3963852734305,61.47517020875239 38.351294142659754,56.70792813814478 38.21602074964903,55.94280994855217 37.90038283239119,54.883413127827225 37.17892473633401,51.646349988121074 37.088742474326864,50.58694184466731 36.77310455706902,49.645243373088306 33.48145199310966,41.81728944185306 32.12871806276962,37.57953649564297 30.415255084168166,32.63543492520694 30.370163953397423,32.45885874432861 30.234890560386702,32.45885874432861 29.919252643128857,32.57657620674581 29.648705856874585,32.81201102826162 29.513432464096695,33.10630436139763 29.648705856874585,33.98918306763517 30.550528477411717,36.75552379025612 35.64582628174685,49.93952438241104 36.77310455706902,54.17714702966623 37.26910699834116,57.17876937726396 37.44947152235545,59.474112520721974 37.44947152235545,61.180897643993376 37.40438039135188,62.53454965809942 37.17892473633401,64.2413217878493 36.18691985402256,68.41994020726997 35.194914971711114,70.83292542773415 34.78909479244612,72.00998613325646 34.11272782762535,75.0114753335074 34.15781895839609,75.36459023680072 34.338183482410386,75.54114757219213 34.92436818568967,75.48229513561819 35.14982384070754,75.36459023680072 35.330188364721835,75.07032783897012 35.465461757732555,73.36360168407555 35.736008543754,72.24539786067908 36.18691985402256,70.59751287309336 36.90837795031257,68.47879367772839 37.629836046369746,65.65381738054566 38.261111880419776,62.3579866104119 38.53165866667405,58.47357994140475 38.486567535670474,57.76732015074231 38.30620301165618,56.47250731193344 37.94547396339476,55.17769030248746 37.72001830837689,53.765157899440965 36.998560212086886,50.29266130932956 35.7810996749904,46.937847979192156 35.01455044769682,44.99557483301032 33.03054068307392,40.640140327159315 32.35417371778749,38.226973865123 30.550528477411717,32.988587054016534 30.370163953397423,32.69429363479139 30.1897994291503,32.57657620674581 29.69379698811099,32.753152335906634 29.46834133309312,32.988587054016534 29.423250202089548,33.224021634145174 29.603614726103842,33.87146601895802 31.001439787447453,37.6383944817062 32.21890032477677,41.287572766828816 33.39126973133534,44.05386326293228 33.797089910367504,45.40757295125513 34.698912530438974,47.467557208496146 35.37527949572541,49.233249598153634 36.6378311640583,53.9417247211386 37.17892473633401,56.76678332328447 37.494562653126195,60.7689156915294 37.40438039135188,62.299132243933855 37.13383360509761,64.47673806469538 36.18691985402256,68.5965005926555 34.969459316693246,71.24489706670283 34.51854800665751,72.59851519356016 34.02254556515254,74.89377029697062 34.11272782762535,75.36459023680072 34.38327461341396,75.60000000000582 34.92436818568967,75.48229513561819 35.24000610248186,75.18803282396402 35.64582628174685,72.71622090233723 36.18691985402256,70.6563660246029 37.04365134332329,68.5965005926555 37.40438039135188,67.12516167919966 38.03565622540191,65.18298606786993 38.21602074964903,64.2413217878493 38.3963852734305,62.3579866104119 38.57674979767762,59.474112520721974 38.4414764046669,57.119914252718445" stroke="#4dd2ff" stroke-linecap="round" stroke-linejoin="round" stroke-width="0.5"><title>2024-09-26 5.1km</title><desc>12508721328</desc></polyline><polyline fill="none" points="97.98796257283539,37.59368747434928 96.49588987417519,32.872156172204996 96.40546122565866,32.636078155454015 96.17938960460015,32.45901955192676 95.72724636248313,32.57705862948205 95.50117474142462,32.872156172204996 95.45596041739918,33.04921459426987 95.45596041739918,33.46235060982872 96.54110419820063,36.767423489072826 98.57574878749438,42.02007283983403 99.66089256852865,45.02998712283443 100.79125067358837,47.56774052520632 101.6503228333313,50.04646098185913 102.23810904822312,52.11204971926054 102.82589526264928,54.5907422316086 103.27803850499913,58.07268930244027 103.41368147730827,60.25626788282534 103.36846715328284,61.613621579366736 103.27803850499913,63.56112107349327 103.09718120796606,64.91846364145749 102.4641806690488,67.86919258729904 100.65560770081356,72.35425921861315 100.29389310744591,73.71157217927976 100.11303581041284,74.71480056046857 100.0678214863874,75.304933736159 100.20346445892937,75.60000000000582 100.9721079703886,75.36394700614619 101.28860823973082,75.06888056956814 101.5598941850476,73.29847741420963 101.83118013036437,72.05919057904975 103.09718120796606,68.22327860922087 103.54932445008308,66.27580163921812 103.95625336794183,65.33156699410756 104.45361093431711,61.90869786491385 104.49882525834255,58.42678392975358 104.18232498900034,55.94811500576907 103.77539607114159,53.70549665557337 103.05196688370779,50.45957957627252 101.92160877864808,47.33167111509829 99.52524959575385,41.90203652740456 98.93746338132769,39.8954139307607 97.6262479792349,36.23625288999756 96.5863185224589,32.8131366809539 96.40546122565866,32.51803909515729 96.26981825311668,32.39999999999418 95.8176750112325,32.45901955192676 95.50117474142462,32.754117181146285 95.41074609314092,33.10823405103292 95.7724606867414,34.22960208661971 97.80710527603514,40.19050611561397 100.8816793221049,47.80380979672191 102.01203742716461,51.28581549448427 102.96153823542409,54.9448399177636 103.32325282902457,57.83662604470737 103.41368147730827,59.60709710797528 103.36846715328284,61.90869786491385 103.23282418050803,63.384076053625904 102.23810904822312,68.28229291611933 101.96682310290635,69.10849230381427 101.01732229464687,71.29201110528084 100.24867878295481,73.9476261404925 100.11303581041284,74.65578719542827 100.11303581041284,75.24592045735335 100.1582501346711,75.54098676441936 100.33910743147135,75.60000000000582 100.8816793221049,75.48197352036368 101.15296526718885,75.304933736159 101.19817959121428,75.12789387410157 101.5598941850476,73.00340946568758 101.83118013036437,71.76412172347773 102.19289472396486,70.46581619273638 103.05196688370779,68.28229291611933 103.41368147730827,66.57087451219559 103.73018174688332,65.56762586292461 104.31796796154231,61.90869786491385 104.36318228556775,59.843159328971524 104.31796796154231,57.364499114395585 104.13711066474207,56.12516329161008 103.63975309859961,54.53172592041665 102.91632391139865,50.22351185994921 102.5093949935399,49.220222523174016 101.83118013036437,47.33167111509829 100.61039337678812,44.557845192204695 98.89224905706942,40.48559808451682 97.44539068243466,36.177233891241485 96.8123901435174,33.99352486457792 96.49588987417519,33.16725349906483 96.22460392885841,32.57705862948205 95.95331798377447,32.51803909515729 95.68203203822486,32.69509767254931 95.54638906591572,32.99019512895029 95.59160338994116,33.58038939346443 96.63153284671716,36.767423489072826 98.75660608429462,42.61025388233247 100.70082202530466,47.33167111509829 101.4242512122728,49.33825669242651 102.87110958690755,54.82680739031639 103.18760985671543,57.069419502222445 103.45889580156654,60.433314276480814 103.41368147730827,62.08574353274889 103.27803850499913,63.325061029725475 102.41896634502336,67.92820694591501 101.01732229464687,71.35102496278705 100.56517905252986,72.59031397485523 100.02260716212913,75.00986725639086 100.0678214863874,75.42296026769327 100.20346445892937,75.60000000000582 101.01732229464687,75.48197352036368 101.19817959121428,75.24592045735335 101.51467986078933,73.29847741420963 103.09718120796606,68.6363785751455 103.54932445008308,66.57087451219559 103.95625336794183,65.39058172426303 104.58925390685908,61.96771309626638 104.58925390685908,60.31528335594339 104.31796796154231,56.951387596840505" stroke="#4dd2ff" stroke-linecap="round" stroke-linejoin="round" stroke-width="0.5"><title>2024-09-25 5.1km</title><desc>12500103409</desc></polyline><polyline fill="none" points="164.15628763870336,38.03504661715124 163.52672732039355,35.804516802862054 163.0320727841463,33.80876908043865 162.7172926249914,32.86959024349926 162.58238684246317,32.57609640574083 162.40251246537082,32.458698810398346 162.13270090078004,32.40000000002328 161.772952147061,32.57609640574083 161.50314058200456,32.986987718293676 161.54810917610303,33.5152759301709 162.98710419004783,37.91765062068589 163.7515702911187,39.854680168500636 164.47106779785827,41.96779263668577 165.41540827578865,44.374379381450126 167.3940264196135,48.83533123484813 167.93364954995923,51.35926884802757 168.4732726800721,53.06145035941154 169.14780159294605,56.172315137053374 169.32767596957274,57.58100068097701 169.46258175210096,60.926609009853564 169.4176131580025,62.276583412400214 169.23773878114298,63.6852475074993 168.42830408597365,67.32427351150545 168.06855533248745,68.439452287741 167.1242148547899,70.78718694060808 166.4047173478175,73.13490784555324 166.0,74.95438209120766 166.0,75.30653744316078 166.2248429711908,75.60000000000582 166.67452891287394,75.54130750586046 166.89937188383192,75.48261500298395 167.0792462604586,75.18915236016619 167.88868095586076,71.31542534279288 168.1584925209172,70.55241409406881 168.78805283945985,69.20246755791595 169.01289581041783,68.38075874515926 169.3726445636712,66.44386702330667 169.73239331739023,65.44607066636672 170.04717347654514,64.15480110605131 170.31698504160158,62.217888967628824 170.58679660665803,59.517935221781954 170.58679660665803,58.22664656766574 170.31698504160158,56.11361979870708 169.9122676937841,54.11797317955643 169.23773878114298,51.65274893454625 169.0578644045163,50.537523462611716 167.1242148547899,45.60701577781583 165.3704396816902,41.556910529063316 164.47106779785827,38.68072398402728 163.30188434920274,35.863215114950435 162.3575438715052,32.86959024349926 162.17766949464567,32.57609640574083 162.04276371211745,32.57609640574083 161.72798355296254,32.693493966566166 161.4581719879061,32.986987718293676 161.3682347992435,33.39787861000514 161.90785792958923,35.276231607887894 163.43679013173096,39.09160903972224 164.69591076904908,42.49606901357765 166.0449685943313,45.548318892368115 167.30408923141658,48.60054553268128 168.83302143355832,54.58753798363614 169.28270737547427,58.050561429030495 169.46258175210096,61.748333100491436 169.32767596957274,63.45047050199355 168.3383668975439,68.08729090413544 166.98930907202885,71.02195964974817 166.26981156505644,73.25229352992028 165.95503140590154,74.77830429928144 165.95503140590154,75.18915236016619 166.13490578252822,75.42392249152181 166.71949750720523,75.36522997161956 166.89937188383192,75.24784490585444 167.1242148547899,75.01307467126753 167.3940264196135,73.72183592381771 168.20346111501567,70.66980053443694 169.0578644045163,68.38075874515926 169.50755034643225,66.3851731888135 169.9122676937841,65.09390665320097 170.31698504160158,62.980916078638984 170.40692223003134,61.10269288549898 170.6317652007565,59.04837619236787 170.58679660665803,57.58100068097701 169.64245612896048,53.00275456547388 169.28270737547427,51.65274893454625 169.10283299861476,50.47882729928824 168.20346111501567,47.95488414290594 164.96572233410552,40.5590522288403 164.33616201533005,38.62202608457301 163.97641326184385,37.27197202475509 162.40251246537082,32.81089149310719 162.22263808897696,32.517397612245986 161.95282652392052,32.517397612245986 161.63804636429995,32.63479519059183 161.4132033935748,32.986987718293676 161.4132033935748,33.456577274395386 162.40251246537082,36.91978326148819 165.68521984107792,45.37222818497685 167.21415204298683,48.71793840092141 168.6981156510301,54.35275565026677 169.01289581041783,55.99622909614118 169.23773878114298,58.989681274979375 169.23773878114298,62.335277848440455 169.19277018727735,63.09830473602051 168.8779900278896,64.9178245307703 168.4732726800721,66.73733606768656 168.2933983032126,67.91121009626659 167.93364954995923,68.79161336208927 167.0792462604586,70.66980053443694 166.67452891287394,71.72627695239498 166.4047173478175,72.54797890826012 166.0,74.8369969050982 166.0,75.24784490585444 166.17987437685952,75.48261500298395 166.4496859421488,75.54130750586046 166.80943469540216,75.48261500298395 167.1242148547899,75.24784490585444 167.25912063731812,75.01307467126753 167.70880657900125,72.3719000594283 168.2933983032126,70.55241409406881 169.10283299861476,68.38075874515926 169.50755034643225,66.44386702330667 169.82233050558716,65.15260067701456 170.49685941822827,59.517935221781954 170.36195363570005,56.99404897264321" stroke="#4dd2ff" stroke-linecap="round" stroke-linejoin="round" stroke-width="0.5"><title>2024-09-20 5.2km</title><desc>12457776384</desc></polyline><polyline fill="none" points="36.80292050447315,103.69814084289828 37.11684760102071,105.80544341169298 37.206541057210416,107.91273487368017 37.206541057210416,109.14198309736094 37.027154144831,111.36632741917856 36.84776723268442,112.53702998658991 36.2199130395893,115.28816752723651 34.78481774125248,118.97583283580025 34.156963548390195,121.14158867209335 33.843036451609805,122.83906477567507 33.843036451609805,123.19026582827792 33.97757663577795,123.48293313666363 34.24665700434707,123.60000000000582 34.65027755708434,123.60000000000582 35.0538981098216,123.30733277733088 35.14359156577848,123.1317323409603 35.90598594304174,120.20504704720224 37.34108124137856,116.2247206690372 37.65500833792612,114.35161219188012 38.01378216245212,113.23944988162839 38.1931690745987,112.06874937092653 38.6864830837585,108.02980629584636 38.641636355547234,106.5664110541984 38.1931690745987,103.17131346504902 37.07200087280944,98.48837293099496 35.233285021968186,93.68830195750343 34.201810276601464,91.28824485922814 32.90125516243279,87.36616932225297 32.183707513147965,85.61000362524646 31.19707949552685,82.8586618565605 30.88315239897929,81.57079324606457 30.569225302431732,80.75123833384714 30.255298206117004,80.40000000002328 29.717137468978763,80.57561920542503 29.49290382885374,80.926857385115 29.403210372664034,81.39517447762773 29.896524381358176,83.44405530806398 31.555853320052847,88.24424927768996 32.721868249820545,90.99555398340453 33.304875714937225,92.63462012744276 34.381197188515216,95.0346691434097 35.36782520613633,97.78592711983947 36.399299951968715,101.53229051746894 36.80292050447315,103.75667717523174 37.07200087280944,105.57129923027242 37.07200087280944,106.15665942657506 37.251387785421684,107.38591304942383 37.29623451340012,108.7322341093386 37.16169432923198,110.66390423345729 36.89261396089569,112.71263507616823 36.2199130395893,115.81497893945198 34.964204653631896,118.85876461854787 34.06727009220049,121.66839237193926 33.843036451609805,122.89759830580442 33.887883179821074,123.19026582827792 34.156963548390195,123.42439969207044 34.78481774125248,123.36586623892072 34.964204653631896,123.24879930718453 35.18843829375692,122.95613182737725 35.7714457588736,120.49771654073265 37.027154144831,117.27834033107501 37.43077469733544,115.93204804780544 38.327709258766845,111.9516791314818 38.596789627335966,109.20051863277331 38.6864830837585,106.80055465281475 38.058628890663385,102.58594889799133 37.11684760102071,98.42983582706074 35.816292486852035,94.91759391594678 34.82966446923092,92.75169602344977 33.48426262708381,89.41501955181593 30.614072030643,80.63415892358171 30.434685118263587,80.40000000002328 30.03106456552632,80.45853974390775 29.582597285043448,80.80977802630514 29.358363644452766,81.1610159999691 29.313516916474327,81.51225366521976 29.403210372664034,81.98057007210446 30.614072030643,84.79045699333074 30.838305671000853,85.84415949726827 31.555853320052847,87.77594020811375 32.13886078516953,90.00040340310079 33.26002898695879,92.63462012744276 34.470890644937754,95.15174433664652 35.278131749946624,97.49324100100785 36.399299951968715,101.76643706427421 37.07200087280944,104.81032969377702 37.206541057210416,105.86397943552583 37.206541057210416,110.48829824401764 37.027154144831,112.24435466618161 36.84776723268442,113.18091493763495 36.35445322399028,114.64428596987273 36.04052612720989,115.87351349796518 35.009051381610334,118.56609392556129 34.426043916726485,120.55625041358871 33.843036451609805,122.89759830580442 33.887883179821074,123.30733277733088 34.156963548390195,123.48293313666363 34.78481774125248,123.48293313666363 35.009051381610334,123.36586623892072 35.233285021968186,123.07319884494063 35.99567939946428,119.56117340788478 37.34108124137856,116.10765164613258 37.69985506613739,114.35161219188012 38.058628890663385,113.06384502360015 38.28286253078841,111.7760737077042 38.372555986978114,110.54683358245529 38.641636355547234,109.08344755342114 38.6864830837585,107.7371276759659 38.6864830837585,106.5664110541984 38.41740271518938,104.51764871718478 38.01378216245212,103.11277704703389 37.74470179411583,101.707900440495 37.251387785421684,100.01033462100895 37.027154144831,98.66398419090547 36.48899340815842,97.14201737567782" stroke="#4dd2ff" stroke-linecap="round" stroke-linejoin="round" stroke-width="0.5"><title>2024-09-18 5.0km</title><desc>12440928748</desc></polyline><polyline fill="none" points="103.56906055333093,117.54803639638703 101.67299713450484,117.89585225243354 100.50189914018847,118.03497853147564 95.98480687709525,119.00886147085112 93.19647832005285,119.35667637648294 91.30041490099393,119.91317975439597 89.46011805301532,120.19143122603418 87.67558777658269,120.60880816215649 86.83908920921385,120.60880816215649 84.60842636344023,121.09574750909815 83.66039465391077,121.16531023656717 81.65279809269123,121.7218117317534 81.15089895250276,121.65224907640368 80.20286724274047,120.74793373513967 79.86826781602576,116.0872073295759 79.86826781602576,114.62637427001027 79.58943495992571,111.70469617389608 79.700968102552,110.3829794076155 79.75673467363231,107.94822944066254 79.53366838907823,105.93085678020725 79.58943495992571,104.88738517521415 79.36636867560446,102.52217532839859 79.47790181776509,101.33956648001913 79.31060210429132,98.55694710329408 79.25483553344384,94.80038796487497 79.08753581973724,93.06123127433239 79.14330239081755,91.11336906225188 78.97600267734379,87.35675760603044 78.97600267734379,84.92190274427412 78.80870296410285,82.41746902815066 78.80870296410285,80.95654394075973 78.9202361064963,80.39999999996508 78.97600267734379,81.30438360961853 79.53366838907823,84.08709280961193 79.700968102552,85.61757669376675 79.64520153123885,87.35675760603044 79.75673467363231,88.33069644501666 79.58943495992571,89.44376723043388 79.75673467363231,92.08730105578434 79.53366838907823,93.54819571808912 79.700968102552,94.86995411495445 79.86826781602576,98.55694710329408 79.92403438710608,102.03521906060632 79.81250124471262,102.73087073588977 80.09133410034701,105.16564446920529 80.03556752949953,106.20911553112091 80.48170009860769,108.92213075835025 80.59323324076831,110.10472282982664 80.64899981208146,111.70469617389608 80.37016695644706,113.79161072935676 80.48170009860769,114.83506495167967 80.42593352729455,118.66104633931536 80.59323324076831,120.0523055085796 80.81629952555522,120.88705927191768 81.42973180813715,120.95662202662788 82.09893066179939,120.67837095313007 84.05076065193862,120.0523055085796 86.05835721315816,119.70449105539592 88.3447866300121,119.49580227525439 90.24085004907101,119.07842447014991 91.41194804315455,118.73060938360868 93.47531117568724,118.80017241899623 95.31560802343301,118.52192022302188 96.48670601751655,118.31323098094435 97.60203744075261,117.89585225243354 98.77313543460332,117.68716276600026 100.94803170929663,116.92196728516137 102.17489627469331,116.71327741851564 103.40176083985716,116.64371411141474 104.40555912046693,116.36546079296386 106.35738911060616,115.6698268627515 108.75535166985355,114.34811990143498 109.53608366590925,113.65248334570788 110.65141508891247,112.95684588496806 112.49171193642542,111.35687628900632 115.72617306327447,109.06125937291654 116.78573791496456,108.6438734200201 118.06836905144155,108.29605154349701 119.90866589942016,107.94822944066254 120.85669760871679,107.94822944066254 121.19129703566432,108.22648714098614 121.19129703566432,108.57430906273657 121.07976389327087,109.2003879515687 120.85669760871679,109.54820923978696 119.23946704552509,109.75690190395107 116.00500591890886,111.14818424958503 114.77814135374501,112.26120751857525 113.83010964421555,112.74815446994035 112.21287908079103,114.20899266266497 109.08995109680109,116.64371411141474 106.91505482234061,117.89585225243354 105.4093574010767,118.52192022302188 101.56146399187855,119.42623933037976 97.26743801380508,120.0523055085796 93.36377803352661,121.0261847723159 88.95821891282685,121.86093701492064 86.78332263790071,122.20875006460119 81.20666552335024,123.39131274039391 78.80870296410285,123.59999999997672 80.70476638316177,122.76525047328323 82.82389608654194,122.48700034117792 85.16609207494184,121.7913743777317 87.39675492071547,121.44356105651241 88.95821891282685,121.0261847723159 92.80611232179217,120.53924536216073 93.92144374502823,120.26099407154834 96.76553887338378,119.91317975439597 100.05576657108031,119.2871134133311 102.89986169943586,118.52192022302188 104.68439197610132,118.24366788228508 105.79972339910455,117.9654153966112 108.42075224290602,116.50458747020457 109.59185023698956,115.60026342002675 113.6070433598943,112.74815446994035 114.55507506919093,111.91338799596997 116.61843820149079,110.45254352933262 120.18749875482172,109.33951649419032 120.85669760871679,109.26995222741971 118.9606341898907,109.61777347017778 116.28383877477609,111.0090561779216 112.8820779346861,113.51335592620308 109.20148423896171,116.57415079540806 106.80352167971432,117.82628909940831 105.13052454544231,118.52192022302188 102.78832855727524,119.07842447014991 97.93663686746731,119.84361686388729 94.86947545432486,120.60880816215649 83.60462808283046,122.76525047328323 81.09513238118961,123.39131274039391 78.80870296410285,123.59999999997672 81.09513238118961,122.69568795379018 83.99499408062547,122.13918747275602 88.62361948611215,121.0261847723159 93.02917860657908,120.53924536216073 96.82130544446409,119.91317975439597 98.717368863523,119.49580227525439 101.95182999013923,118.52192022302188" stroke="#4dd2ff" stroke-linecap="round" stroke-linejoin="round" stroke-width="0.5"><title>2024-09-15 5.6km</title><desc>12415256505</desc></polyline><polyline fill="none" points="185.148277514847,93.56114613305544 183.7466326437425,93.62016375764506 182.2997734216042,93.85623416994349 181.25984335597605,93.91525175134302 179.72255543270148,93.85623416994349 178.72783971764147,94.15132199096843 178.09483880805783,94.21033952914877 170.95097139966674,94.03328688835609 169.45889782719314,94.09230444399873 168.23811035859399,93.79721657987102 167.24339464399964,93.79721657987102 162.76717392588034,94.09230444399873 161.72724386001937,94.26935705868527 160.68731379439123,94.6234620550822 159.87345548230223,94.80051443641423 158.60745366313495,94.97756674027187 153.81473249057308,95.3316711143998 153.22694593132474,95.56774052412948 152.82001677528024,96.0398789291794 152.68437372334301,96.3939823701221 152.68437372334301,96.86611980744055 153.22694593132474,98.5776133814943 153.90516119170934,101.41041436375235 154.58337645209394,105.42351501013036 154.719019504264,106.42678392885136 154.67380515346304,110.26278912197449 154.53816210129298,111.56112107264926 154.0408042438794,113.92171390584554 153.4530176850967,115.92820694536204 152.1870158656966,119.35102496226318 151.7800867096521,120.64932764219702 151.37315755337477,122.53776043924154 151.32794320280664,123.12789387401426 151.4183719039429,123.42296026760596 152.00615846319124,123.42296026760596 152.32265891786665,123.30493373598438 152.50351632060483,123.12789387401426 153.31737463292666,119.46905265157693 154.58337645209394,116.10524996937602 155.4424491149839,112.68240439199144 155.71373521909118,109.25952975038672 155.75894956989214,108.7874068292731 156.1206643753685,107.90217486166512 156.07545002456754,106.9579252867552 155.66852086829022,104.42024359412608 155.2163773616776,101.94156233157264 153.72430378897116,96.98415408012806 152.91044547688216,95.09560156601947 151.46358625474386,91.14141608116915 150.33322748774663,88.36756132211303 148.93158261664212,84.70840456784936 148.61508216173388,83.58704342858982 148.20815300545655,81.69842814246658 147.89165255078115,80.75411718085525 147.75600949884392,80.45901955166482 147.62036644667387,80.39999999999418 147.30386599176563,80.45901955166482 146.94215118628927,80.81313668075018 146.851722485153,81.16725349877379 146.89693683572114,81.40333120446303 147.75600949884392,83.29194787351298 148.47943910956383,85.7117250477313 149.24808307131752,87.659340026672 149.88108398066834,89.54792738260585 152.23223021649756,95.44970583650866 152.9556598274503,97.45629082623054 153.67908943840303,99.99401636121911 154.08601859444752,101.88254592532758 154.49294775072485,103.77106664146413 154.76423385483213,105.83662604377605 154.89987690676935,107.60709710716037 154.89987690676935,109.31854507676326 154.76423385483213,111.44309106809669 153.99558989331126,114.86594716864056 152.2774445670657,119.70510792601272 151.7800867096521,121.65255866703228 151.46358625474386,123.00986725612893 151.46358625474386,123.36394700611709 151.5992293069139,123.48197352033458 152.2774445670657,123.42296026760596 152.4583019700367,123.30493373598438 152.63915937254205,123.00986725612893 152.91044547688216,121.29847741386038 153.18173158098944,120.29524550776114 154.44773340015672,116.40032150308252 154.719019504264,114.74791813167394 155.08073430950753,113.44959644507617 155.26159171224572,112.62338955825544 155.75894956989214,108.72839142521843 155.80416392046027,107.54808153025806 155.57809216715395,105.01040355287842 154.85466255620122,100.58418280037586 154.31209034798667,98.34154573440901 153.04608852881938,94.80051443641423 150.64972794242203,89.42989093222423 149.7454409287311,86.83308027594467 149.38372612325475,85.47564986551879 147.80122384917922,80.69509767240379 147.5751520958729,80.39999999999418 147.30386599176563,80.45901955166482 146.98736553709023,80.75411718085525 146.851722485153,81.16725349877379 146.89693683572114,81.5803893932607 147.39429469336756,83.17390959101613 148.16293865488842,85.0034990858403 149.15765436994843,88.0134508300689 151.10187144950032,92.8529339627712 152.41308761923574,95.68577517732047 152.68437372334301,96.86611980744055 153.0913028793875,97.92842701924383 154.13123294501565,101.64648021373432 154.719019504264,104.65630768137635 154.89987690676935,107.07595660458901 154.89987690676935,109.8496826243354 154.80944820540026,110.79392542535788 154.35730469878763,113.3315669936419 153.90516119170934,115.10200513870222 151.96094411239028,121.00340946533834 151.50880060554482,122.89184060372645 151.55401495611295,123.36394700611709 151.689658008283,123.60000000000582 152.23223021649756,123.54098676453577 152.54873067117296,123.30493373598438 153.2721602821257,119.88214929131209 154.49294775072485,116.22327860860969 154.80944820540026,114.68890360018122 155.48766346578486,112.74141921725823 155.8945926220622,109.31854507676326 155.9398069723975,108.07922141064773 155.9398069723975,107.19398788790568 155.66852086829022,104.65630768137635" stroke="#4dd2ff" stroke-linecap="round" stroke-linejoin="round" stroke-width="0.5"><title>2024-09-13 5.3km</title><desc>12398516918</desc></polyline><polyline fill="none" points="52.69612032128498,141.6201637586637 50.20933285425417,141.79721658080234 48.445974468486384,141.79721658080234 47.22518789349124,142.09230444504647 44.286257250700146,141.91525175241986 40.89518343168311,142.09230444504647 38.31796732917428,142.09230444504647 36.87110916641541,141.91525175241986 35.01732214563526,141.85623417104944 31.89753423212096,142.03328688960755 31.30974810360931,142.26935705979122 29.998532893601805,142.5054270919063 29.275103812105954,142.74149698557449 25.65795840532519,142.9775667412032 24.437171830562875,142.91854931539274 22.628599127288908,143.1546189672954 21.950384363299236,143.33167111536022 21.407812552293763,143.6857751784264 21.091312329052016,144.0988961920957 21.046098011545837,144.7480855010508 22.086027316050604,148.2890996900096 22.31209890404716,149.70549665566068 22.719027762301266,151.23992108533275 23.035527985543013,153.01040355404257 23.080742303282022,157.84968262523762 22.673813445027918,161.09550798748387 22.086027316050604,163.63313506674604 21.63388414052315,165.2855348092853 20.548740518279374,167.76412172365235 19.780097119277343,170.41973364865407 19.689668484264985,171.3049337361299 19.780097119277343,171.4819735205383 20.09659734251909,171.60000000000582 20.593954836018384,171.54098676459398 20.9104550590273,171.3049337361299 21.453026870032772,168.53130029892782 23.17117093829438,164.2232786095119 23.352028208319098,162.6298890610633 23.804171384312212,161.09550798748387 24.391957512823865,157.25952975152177 24.437171830562875,155.60709710826632 24.301528877811506,153.6005626487604 24.03024297230877,150.94483991805464 23.26159957330674,147.75794954464072 23.080742303282022,146.75466402739403 22.35731322155334,144.57103397493483 21.226955282036215,142.2103395300801 18.288024639012292,134.65602439534268 16.389023300493136,128.75411718105897 16.20816603023559,128.51803909498267 16.07252307748422,128.39999999999418 15.665594218997285,128.51803909498267 15.349093995988369,128.8131366810121 15.30387967848219,129.16725349903572 15.936880124500021,131.17390959130717 17.248095334740356,134.59700575098395 17.474166922504082,135.4822845090821 18.740167814772576,138.9053440799471 19.011453720275313,139.84963125936338 20.503526200773194,143.1546189672954 21.407812552293763,145.63334196453798 22.221670268801972,148.40713296059403 23.21638525580056,153.71859436423983 23.21638525580056,154.3087524220755 23.080742303282022,155.37103474902688 23.080742303282022,157.4365757042833 22.899885032791644,159.56112107349327 22.53817049204372,162.0397431855672 22.266884586540982,163.2200340726995 21.72431277553551,164.93144972037408 21.000883694039658,166.40680220592185 20.322668930282816,168.2952455083141 19.780097119277343,171.00986725633265 19.780097119277343,171.3049337361299 20.00616870704107,171.4819735205383 20.593954836018384,171.4819735205383 20.9104550590273,171.3049337361299 21.000883694039658,171.06888056971366 21.453026870032772,169.06242307275534 21.72431277553551,168.1182043243607 22.35731322155334,166.40680220592185 23.21638525580056,164.2232786095119 23.352028208319098,162.74791813243064 23.93981433729641,160.74141921804403 24.301528877811506,158.49884978865157 24.437171830562875,157.1414990730118 24.211100242566317,152.89237163143116 22.990313667804003,146.45957957630162 22.583384809549898,145.63334196453798 20.82002642378211,140.91195169230923 19.418382578762248,137.60694559570402 18.37845327425748,134.5379870980687 17.70023851026781,132.70840456831502 16.569880570750684,128.69509767260752 16.298594665247947,128.39999999999418 15.846451489487663,128.39999999999418 15.484736948506907,128.69509767260752 15.394308313494548,128.9901951289794 15.439522631233558,129.4623506097123 15.710808536736295,130.46567917001084 16.84116647625342,134.1838749984454 18.016738733509555,136.8987264780444 18.649739179760218,138.66927193917218 19.011453720275313,139.96766700121225 20.187025977531448,142.56444457822363 21.181740964297205,145.33825669271755 22.673813445027918,151.00385616873973 23.12595662055537,153.48253089908394 23.30681389081292,157.37756039536907 23.080742303282022,159.44309106905712 22.809456397779286,161.03649321428384 22.086027316050604,163.81017822021386 21.046098011545837,166.64285810251022 20.05138302478008,169.88861266331514 19.825311436783522,171.3049337361299 19.96095438976772,171.54098676459398 20.322668930282816,171.60000000000582 20.72959778853692,171.4819735205383 21.046098011545837,171.06888056971366 21.769527093041688,168.1182043243607 23.21638525580056,164.04623563736095 23.487671161303297,162.45284538916894 23.849385702051222,160.97747843223624 24.437171830562875,156.61036059231265 24.482386148069054,155.60709710826632 24.391957512823865,154.13170509549673 24.07545729004778,152.24319543904858 23.623314114054665,150.64975853444776 22.990313667804003,146.45957957630162 22.31209890404716,144.7480855010508 21.54345550504513,143.0956015671254 20.95566937653348,141.3250755488698 20.413097565528005,139.96766700121225 19.23752530827187,137.31185444796574 16.434237617999315,128.8131366810121 16.16295171249658,128.57705862959847 15.756022854009643,128.69509767260752 15.439522631233558,128.9901951289794 15.439522631233558,129.4623506097123 16.02730875974521,131.23292873686296 16.97680942900479,134.30191239959095 17.881095780758187,136.78068983726553" stroke="#4dd2ff" stroke-linecap="round" stroke-linejoin="round" stroke-width="0.5"><title>2024-09-11 6.0km</title><desc>12382575313</desc></polyline><polyline fill="none" points="118.89317559590563,141.81957064775634 117.26989559247158,141.64300025822013 114.74479336501099,141.70185706342454 112.94114891672507,142.0549977129267 109.73968002083711,141.9372841976874 105.18547778902575,142.1138544579444 103.33674222952686,141.9372841976874 101.12727778032422,141.99614095961442 98.06108221807517,142.172711193969 95.94179999129847,142.52585142996395 94.31851998786442,142.87899135559564 90.35050220158882,142.99670459525078 88.14103775238618,143.23213097112603 87.37448886199854,143.34984410734614 87.01375997229479,143.52641374696395 86.69812219380401,144.05612220065086 86.65303108259104,144.6446863305173 88.23121997481212,150.00058031192748 88.72722219815478,152.06052053457825 88.95267775421962,155.0032739706512 89.0879510876257,155.827241072373 89.35849775490351,156.8277702824853 89.35849775490351,157.59287917480106 88.95267775421962,159.82934297213797 88.36649330845103,162.06579432767467 87.8253999738954,163.89025858655805 86.60793997137807,166.95063165365718 85.97666441439651,169.12819061154732 85.61593552469276,171.01147533362382 85.66102663590573,171.42344269060413 85.8864821922034,171.60000000000582 86.51775774895214,171.42344269060413 86.78830441622995,171.1291803359054 87.01375997229479,169.77557072998025 87.32939775055274,168.95163221666007 87.69012664048932,167.5980152785778 88.72722219815478,164.77306090079946 88.90758664300665,163.1251616795489 89.44867997756228,161.41840179360588 89.854499978479,159.41736373389722 90.07995553431101,158.65225831393036 90.17013775673695,157.65173364477232 90.03486442309804,156.35693331735092 90.07995553431101,154.94441911307513 89.98977331188507,153.64961006547674 89.98977331188507,152.7079281389597 89.76431775582023,151.11883488541935 89.13304219883867,148.35262053340557 88.99776886543259,147.35207022883696 88.81740442058071,146.5869418452785 88.27631108602509,145.46867466461845 87.05885108327493,142.172711193969 86.51775774895214,140.9955748336506 86.15702885948122,139.99500621692277 84.3533844111953,135.69841855356935 83.22610663063824,132.28465862906887 82.73010440752842,130.28347553889034 82.18901107297279,128.6942936349078 82.09882885054685,128.51771747975727 81.87337329471484,128.40000000002328 81.51264440501109,128.5765762066003 81.24209773773327,128.75315233579022 81.10682440409437,129.04744571185438 81.10682440409437,129.40059747881605 81.28718884871341,130.2246170619037 81.96355551690795,131.93150939588668 82.63992218510248,134.22697386544314 83.8573821876198,137.1698578556534 84.93956885673106,140.3481483660289 85.7512088585645,142.172711193969 86.24721108167432,143.1732743899338 87.1490333059337,145.58638714594417 88.05085553019308,149.00003410922363 88.72722219815478,153.00220397801604 88.77231330936775,153.94388521535438 88.63703997572884,154.6501446957991 88.63703997572884,155.06212881955435 88.99776886543259,157.06318855832797 88.99776886543259,157.82829700259026 88.86249553202651,159.18194683661568 87.91558219655417,163.77255146493553 86.42757552629337,167.48030924244085 86.11193774803542,168.4219565661333 85.61593552469276,170.77606522588758 85.61593552469276,171.36459023694624 85.7512088585645,171.54114757222123 86.42757552629337,171.54114757222123 86.60793997137807,171.42344269060413 86.78830441622995,171.1291803359054 86.92357774986885,170.2463919793081 87.23921552835964,169.0693378218566 88.81740442058071,164.3022332410328 88.95267775421962,162.94860064811655 89.44867997756228,161.30069394834572 89.9446822006721,158.5934039906715 90.12504664575681,155.88609580066986 89.98977331188507,153.00220397801604 89.76431775582023,151.64853333454812 89.22322442149743,150.05943589325761 89.04285997664556,149.4120240236516 88.72722219815478,146.46922965699923 88.27631108602509,145.46867466461845 87.19412441714667,142.34928135067457 84.71411330066621,136.40471009086468 82.27919329539873,128.6942936349078 82.09882885054685,128.4588587443577 81.96355551690795,128.40000000002328 81.60282662743703,128.51771747975727 81.15191551530734,128.92972838741844 81.10682440409437,129.16516300209332 81.1970066265203,129.57717324604164 81.82828218326904,131.51950156511157 82.09882885054685,132.69666567549575 82.59483107388951,134.05040014075348 84.26320218853652,138.34700541911297 84.75920441187918,139.818435026129 85.21011552400887,140.81900408212095 86.69812219380401,144.5269735736947 87.96067330753431,148.94117837259546 88.4566755311098,151.29540111258393 88.86249553202651,153.82617518128245 89.04285997664556,156.76891569202417 88.72722219815478,159.82934297213797 88.14103775238618,162.7131858188659 87.78030886291526,164.00796567389625 86.69812219380401,166.8329254279961 86.24721108167432,168.1865449420875 85.61593552469276,170.83491776580922 85.66102663590573,171.24688530364074 85.8413910807576,171.54114757222123 86.42757552629337,171.54114757222123 86.69812219380401,171.36459023694624 86.78830441622995,171.18803282402223 86.968668860849,170.06983407534426 87.41957997321151,168.53966232659877 88.72722219815478,164.83191431948217 88.99776886543259,162.7720395391225 89.35849775490351,161.41840179360588 89.89959108945914,158.65225831393036 90.12504664575681,156.5923518689233 90.17013775673695,155.41525773255853 89.98977331188507,153.17876937796245" stroke="#4dd2ff" stroke-linecap="round" stroke-linejoin="round" stroke-width="0.5"><title>2024-09-09 5.3km</title><desc>12365189541</desc></polyline><polyline fill="none" points="185.1291833424475,141.57914947302197 182.8200984892901,141.81554284447338 179.4243854698725,141.9928377821925 174.8967681110371,141.93373947803047 170.50497927237302,142.17013264170964 169.14669406460598,142.05193607733236 165.34349548304453,141.9928377821925 163.30606767139398,142.11103436385747 161.99305863701738,142.4065256671165 160.54422108246945,142.8202131280559 153.57169034914114,143.05660577243543 152.93782391911373,143.17480204295134 152.48506218311377,143.47029256715905 152.34923366224393,143.8248809108627 152.3945098358672,144.29766488459427 153.70751887001097,148.43450103272335 154.38666147412732,151.68484254885698 154.56776616815478,153.22135851846542 154.61304234177805,154.22600041286205 154.5224899945315,155.3488325124781 154.7488708626479,157.94906327768695 154.47721382114105,159.7810339863936 153.8433473908808,162.85399844043422 153.20948096062057,164.74504186134436 152.25868131499738,166.81336045917124 151.44371019024402,169.7089886922622 151.30788166937418,171.0681539652287 151.39843401685357,171.4227180662565 151.62481488473713,171.60000000000582 152.25868131499738,171.4227180662565 152.48506218311377,171.24543605465442 152.5756145301275,171.0681539652287 153.4811380021274,167.52249582463992 153.8433473908808,166.3406028568861 154.5224899945315,164.62685190705815 155.33746111928485,161.49480550948647 155.74494668166153,158.77640591777163 155.83549902867526,157.5944873416156 155.92605137615465,153.81232464144705 155.83549902867526,152.57129478358547 155.3827372926753,149.91193223939626 154.8846993832849,147.78442958873347 154.7035946890246,146.77977166126948 150.0854249827098,135.43287322187098 148.72713977494277,131.1186041785113 148.1385495183058,128.99100246618036 147.9574448238127,128.69550134133897 147.7763401295524,128.45910028571961 147.5952354350593,128.40000000002328 147.278302220162,128.5182005627139 146.96136900479905,128.81370181715465 146.87081665778533,129.05010266514728 147.00664517842233,129.81840446477872 149.49683472584002,136.91035201979685 149.63266324670985,137.85593561202404 150.71929141297005,139.9834905952157 152.71144305099733,144.65225250154617 154.11500443215482,149.85283509499277 154.43193764728494,151.50755186841707 154.5224899945315,152.9258751323796 154.47721382114105,155.76250670923037 154.65831851563416,157.47629529365804 154.38666147412732,160.72656400236883 154.06972825876437,161.96756878716405 153.16420478676446,164.68594688840676 152.12285279412754,167.40430668360204 151.48898636410013,169.7089886922622 151.26260549621657,171.24543605465442 151.3531578432303,171.4227180662565 151.48898636410013,171.54090603080112 151.80591957923025,171.60000000000582 152.2134051413741,171.4818120529817 152.48506218311377,171.24543605465442 152.53033835673705,171.0681539652287 152.89254774525762,169.47261165603413 153.61696652276441,166.87245512063964 154.3413853002712,164.8632317808515 154.7488708626479,163.38585529799457 154.8846993832849,162.49942681269022 155.4280134665314,160.49018170608906 155.56384198716842,159.54465113632614 155.9713275495451,155.46702518343227 155.92605137615465,153.2804551695299 155.47328963992186,150.4438061499095 155.15635642479174,149.26186317473184 154.61304234177805,146.48428355975193 150.8098437602166,137.20584713030257 150.1307011563331,135.25557540290174 149.67793942033313,133.60079200129258 147.9574448238127,128.5773008307733 147.82161630294286,128.40000000002328 147.36885456717573,128.5182005627139 147.05192135181278,128.81370181715465 147.05192135181278,129.2865033747512 147.50468308804557,131.00040437764255 148.04799717105925,132.5960987691651 148.3196542125661,133.89628953498323 148.6365874276962,134.96007886438747 150.67401523934677,140.16078633756842 151.76064340560697,142.58382034496753 152.30395748862065,143.70668483094778 153.20948096062057,146.30699059495237 153.75279504340142,148.3163063027605 154.06972825876437,149.79373794188723 154.65831851563416,153.87142120627686 154.65831851563416,157.2990071568056 154.1602806057781,161.55390094956965 153.43586182850413,164.33137687001727 152.8019953982439,165.8678447008133 151.48898636410013,169.82717715852777 151.26260549621657,171.1272480036423 151.30788166937418,171.3045300671074 151.62481488473713,171.54090603080112 152.34923366224393,171.4818120529817 152.5756145301275,171.18634203341207 153.0736524395179,168.76347971631913 153.8433473908808,166.16331861336948 154.56776616815478,164.68594688840676 154.7035946890246,164.094996684551 154.97525173053145,162.55852210547891 155.56384198716842,160.25379927130416 155.88077520229854,157.83087133357185 155.9713275495451,155.05335068379645 155.83549902867526,153.16226185837877" stroke="#4dd2ff" stroke-linecap="round" stroke-linejoin="round" stroke-width="0.5"><title>2024-09-06 5.2km</title><desc>12339872186</desc></polyline><polyline fill="none" points="53.306519262026995,189.9742693248554 51.22666004416533,189.9742693248554 50.005873111775145,190.0923044444644 48.15208554803394,189.85623417043826 46.38872664608061,190.0923044444644 43.31415214971639,190.03328688899637 39.24486237554811,190.21033952964353 34.859072285471484,189.9742693248554 32.96007039095275,189.9742693248554 30.654139518970624,190.26935705938376 28.574280300876126,190.91854931492708 27.805636676959693,191.03658415816608 25.183205489069223,191.09560156686348 24.233704541809857,191.03658415816608 21.11391571490094,191.2726537407143 20.66177240666002,191.33167111495277 20.11920043686405,191.62675785567262 20.028771775076166,191.80380979645997 20.028771775076166,191.980861659511 20.752201068215072,194.0464609816845 21.204344376455992,195.63991608348442 21.79213067726232,197.70549665525323 22.425131308846176,200.3022114991909 22.560774301178753,202.54481540294364 22.60598863218911,205.2595297509979 22.515559970401227,207.73816601515864 21.520844692364335,211.92820694571128 20.345272090751678,214.760885998694 19.712271459167823,216.76735495124012 19.30534248170443,218.83282726467587 19.350556812481955,219.30493373604259 19.53141413582489,219.54098676441936 20.07398610585369,219.60000000000582 20.390486421529204,219.48197352021816 20.526129414094612,219.18690716996207 21.023487053113058,216.82636859288323 21.837345008039847,214.17074617071194 22.4703456396237,212.57736432005186 22.83206028607674,210.98397617114824 23.329417925095186,209.50861115849693 23.73634690255858,206.26278912252747 23.826775564346462,204.7283914258005 23.917204225901514,202.89890961549827 23.73634690255858,200.77433967372053 23.51027524867095,198.88582365802722 23.238989263540134,197.70549665525323 22.560774301178753,194.9907314320153 21.746916346251965,192.51201678192592 21.11391571490094,191.21363635812304 20.88784406078048,190.50542709132424 18.62712751934305,185.31185444747098 17.22548326384276,181.18055569331045 16.68291129404679,179.1148904368456 15.959482000675052,176.99019512877567 15.778624677332118,176.63607815522118 15.552553023211658,176.45901955189765 15.371695700101554,176.45901955189765 14.919552391860634,176.75411718088435 14.783909399295226,177.04921459418256 15.009981053415686,177.9345055373269 15.688196015777066,179.8231197175046 16.049910662462935,180.59036670034402 17.270697594853118,184.42657970779692 19.124485158594325,189.26605788053712 19.84791445173323,190.91854931492708 20.616558075649664,193.16120542530552 21.430416030809283,196.1120497188531 22.063416662160307,198.82680739005446 22.289488316280767,200.12516329126083 22.4703456396237,202.2497366546304 22.4703456396237,204.07922141131712 22.560774301178753,205.55460629603476 22.560774301178753,207.14801590613206 21.520844692364335,211.8691925870953 21.068701383890584,213.1675064805313 20.345272090751678,214.760885998694 19.621842797845602,217.00340946551296 19.30534248170443,219.18690716996207 19.30534248170443,219.3639470062044 19.53141413582489,219.60000000000582 20.07398610585369,219.54098676441936 20.345272090751678,219.42296026754775 20.480915083317086,219.24592045741156 20.797415398759767,217.53453161736252 21.656487684696913,214.17074617071194 22.334702647291124,212.4593357842823 22.60598863218911,210.8659471688443 23.0581319401972,209.744669923326 23.28420359431766,208.7414192177239 23.826775564346462,205.79066737636458 23.917204225901514,202.60383112650015 23.781561233336106,200.6563076818711 23.691132571781054,200.0071311093925 22.651202962733805,195.9349996703677 22.425131308846176,194.5185964833945 22.01820233138278,193.6333419640141 21.385201699798927,191.68577517781523 20.390486421529204,189.50212850022945 17.994126887759194,183.48228450879105 15.778624677332118,176.75411718088435 15.462124361656606,176.39999999999418 15.145624045748264,176.45901955189765 14.783909399295226,176.75411718088435 14.693480737740174,177.04921459418256 15.41691003087908,179.46900523276418 16.185553654795513,181.71172504819697 16.863768617389724,183.18719180565677 17.903698226204142,186.07909098261734 20.028771775076166,191.15461896682973 20.706986737437546,193.04317120448104 21.611273353919387,196.58418280121987 21.837345008039847,197.764513087488 22.15384532371536,198.70877482785727 22.334702647291124,199.71205050355638 22.334702647291124,200.8923716309073 22.560774301178753,202.2497366546304 22.560774301178753,204.13823691030848 22.651202962733805,204.78740682988428 22.60598863218911,205.6726368534146 22.37991697783582,207.56112107323133 22.15384532371536,208.6824043925153 21.92777366982773,210.09875781150186 21.520844692364335,211.75116384384455 20.43570075253956,214.4658161927655 19.621842797845602,217.23946384165902 19.30534248170443,219.06888056942262 19.30534248170443,219.3639470062044 19.440985474269837,219.48197352021816 20.11920043686405,219.48197352021816 20.300057759974152,219.42296026754775 20.480915083317086,219.12789387407247 20.88784406078048,216.9443958499469 21.656487684696913,214.22976019245107 22.515559970401227,211.8691925870953 22.786845955299214,210.51185995468404 23.148560601985082,209.33156699390383 23.645918240770698,206.97097070486052 23.781561233336106,205.55460629603476 23.826775564346462,203.6661126759136 23.645918240770698,200.95138759663678" stroke="#4dd2ff" stroke-linecap="round" stroke-linejoin="round" stroke-width="0.5"><title>2024-09-02 5.3km</title><desc>12320263835</desc></polyline><polyline fill="none" points="121.59999999997672,192.49858383233368 121.22871587460395,192.6411226688797 120.13670374115463,192.75515366293257 119.35045500507113,192.66963042363932 118.34580384218134,192.69813817430986 117.53771486342885,192.66963042363932 116.75146612746175,192.69813817430986 116.03073811926879,192.81216913500975 115.44105156732257,192.81216913500975 114.45824064721819,192.72664592070214 112.84206268959679,192.78366140113212 110.2649140546564,192.75515366293257 108.67057633970398,192.84067686472554 108.3211324570002,192.84067686472554 107.70960566226859,193.1827692960651 107.64408493426163,193.29679997288622 107.60040444892365,193.46784586302238 107.6877654195996,194.23755050892942 107.66592517704703,196.09053069500078 107.73144590505399,198.00050719962746 107.66592517704703,198.37109748544754 107.75328614760656,198.77019392755756 107.62224469170906,199.28331672251807 107.60040444892365,199.62539783456305 107.6877654195996,200.70865072456945 107.66592517704703,201.27878140403482 107.73144590505399,202.4190377547202 107.77512639027555,205.07010796049144 107.86248736083508,206.35287090895872 107.86248736083508,206.97999638592592 108.0153690596344,208.74733913665114 108.05904954497237,209.71652028649987 108.0153690596344,210.315129763374 107.97168857429642,210.5716761188669 107.86248736083508,210.79971703981573 107.70960566226859,210.91373740018753 107.31648129422683,211.02775769375148 106.48655207280535,211.1132728701923 104.84853387263138,211.22729304697714 103.66916076850612,211.19878800898732 103.12315470178146,211.2557980806887 98.8861476238817,211.22729304697714 97.29180990892928,211.17028296689386 95.61011122353375,210.99925262664328 94.53993933275342,210.82822213610052 94.21233569260221,210.6856966126652 94.01577350858133,210.5146658467711 93.88473205256741,210.2296142365376 93.7536905965535,209.0894036226673 93.64448938320857,208.8613606987492 93.40424671384972,208.74733913665114 92.59615773509722,208.74733913665114 90.87077856413089,208.88986607879633 90.73973710823338,208.94687682650692 90.60869565221947,209.03239291677892 90.5213346814271,209.28894096202566 90.54317492421251,210.37214009386662 90.49949443887454,210.6286863740679 90.28109201218467,210.9422424798977 89.86612740135752,211.22729304697714 88.75227502523921,211.34131315698323 86.8521739130374,211.74038301622204 85.891203235602,211.88290776775102 84.03478260862175,212.02543241494277 82.24388270976488,212.02543241494277 80.40930232557002,212.05393733191886 79.71041456016246,212.02543241494277 79.53569261881057,211.93991763915983 79.49201213335618,211.8258978796366 79.40465116279665,211.3698181740183 79.2954499493353,209.88755175344704 79.20808897877578,208.03470286066295 79.03336703742389,205.86827256606193 78.96784630941693,205.4406847913924 78.858645096072,204.21492796686653 78.81496461073402,202.27650607605756 78.81496461073402,200.79417043285503 78.77128412539605,200.1955316857784 78.83680485340301,196.5181390029902 78.68392315460369,193.86695235552907 78.61840242659673,189.19165353065182 78.48736097081564,187.90877751661174 78.40000000002328,186.31229778278794 78.48736097081564,185.37150895230297 78.53104145592079,185.1719471007964 78.64024266938213,185.02940279588802 78.74944388261065,184.97238504473353 79.42649140546564,184.97238504473353 80.47482305357698,184.8583494923223 81.89443882717751,184.573260318939 83.44509605667554,184.54475137859117 84.93023255816661,184.40220661454077 88.03154701716267,184.51624243418337 88.86147623870056,184.60176925503765 89.9098078868119,184.6302781869308 90.80525783624034,184.65878711476398 91.76622851367574,184.573260318939 92.83640040445607,184.573260318939 96.11243680480402,184.3736976491491 97.31365015171468,184.40220661454077 98.92982810921967,184.3166797060112 100.91729019209743,184.2881707281631 102.44610717892647,184.0600987548969 103.97492416587193,183.94606266808114 105.26349848334212,184.1171167732682 106.53023255814333,184.1171167732682 106.68311425682623,184.20264376945852 106.74863498483319,184.40220661454077 106.83599595550913,185.88466705977044 106.94519716885407,186.45484114835563 107.01071789686102,187.22457351935736 106.98887765430845,188.33640379380086 107.01071789686102,189.67629338051484 107.25096056621987,192.01395100762602 107.27280080888886,192.9832154508622 107.31648129422683,193.1542616164079 107.49120323557872,193.49635349672462" stroke="#4dd2ff" stroke-linecap="round" stroke-linejoin="round" stroke-width="0.5"><title>2024-08-26 5.0km</title><desc>12299611399</desc></polyline><polyline fill="none" points="187.60000000009313,192.5061821762938 186.10286288312636,192.42121727626363 184.5189352085581,192.59114703899832 182.5444500251906,192.6477902600891 180.5699648418231,192.81771982379723 179.00773480674252,192.7893982401729 177.4672024109168,192.6761118643626 175.5578101457795,192.7893982401729 174.53802109498065,192.76107665248855 174.277649422409,192.7893982401729 173.60502260166686,192.98764923817362 173.4314414866967,193.0726138894679 173.3012556504691,193.18590003305872 173.25786037172657,193.27086459724524 173.25786037172657,193.58240101306 173.3012556504691,193.86561550133047 173.38804620795418,194.60197122985846 173.40974384744186,195.25336049920588 173.583324962412,197.09423135795805 173.56162732304074,198.62355690263212 173.47483676555566,200.32279332741746 173.47483676555566,200.63431838619 173.4314414866967,201.1724059424305 173.5182320442982,201.6538514344429 173.49653440481052,202.10697550898476 173.5182320442982,202.84329986620287 173.6484178805258,203.4380213394179 173.69181315926835,203.86282127222512 173.60502260166686,204.9672967321094 173.60502260166686,206.12840515989228 173.71351079863962,207.43110388076457 173.71351079863962,208.22404663327325 173.77860371686984,208.90370926285686 173.8003013561247,210.17807025735965 173.8003013561247,210.4046224441845 173.7352084380109,210.57453641020402 173.62672024115454,210.7444502270082 173.5182320442982,210.8010881327209 172.97579105990008,210.85772602190264 170.95791059767362,210.99932067228656 169.0051230537938,211.05595850343525 167.35610246122815,211.02763958998548 164.8391762933461,211.05595850343525 163.51562029134948,210.99932067228656 161.3892516323831,210.7444502270082 160.36946258170065,210.57453641020402 160.109090909129,210.46126044938865 159.93550979415886,210.3196654051426 159.74023103981744,210.06479406438302 159.67513812158722,209.89487965071748 159.56664992473088,208.87539003432903 159.50155700661708,208.7337938293058 159.39306880976073,208.64883605657087 159.11099949781783,208.56387824661215 157.98272225016262,208.50723968581588 156.81104972376488,208.62051679070282 156.63746860879473,208.64883605657087 156.4638874938246,208.76211307862832 156.3770969362231,208.93202848733927 156.39879457571078,210.12143216910772 156.35539929685183,210.48957944579888 156.26860873936675,210.63117436562607 156.05163234565407,210.88604496025073 155.85635359131265,210.99932067228656 155.6827724762261,211.05595850343525 151.40833751880564,211.7072923698288 149.26027122046798,211.90552398082218 145.87543947761878,211.7639299936709 145.6584630839061,211.7072923698288 145.46318432944827,211.50906055570522 145.39809141145088,211.19755300869292 145.26790557510685,210.0081559431128 145.1594173782505,208.30900459259283 144.76885986945126,204.3725799603999 144.72546459070873,200.66263882114436 144.5301858363673,199.10500873845012 144.55188347562216,197.85889564162062 144.63867403322365,196.27292190851585 144.61697639373597,192.95932767949125 144.63867403322365,191.76981846944545 144.5952787543647,190.92016455506382 144.5952787543647,190.38204847885936 144.42169763951097,187.77641261988902 144.40000000002328,186.89841871755198 144.42169763951097,185.3406777922064 144.4650929181371,185.08577353729925 144.55188347562216,184.97248264949303 144.8122551481938,184.91583718075708 145.70185836264864,184.91583718075708 147.50276243092958,184.66093236595043 148.11029633355793,184.6326095879631 149.1734806629829,184.6892551396304 151.8639879457187,184.49099563607888 153.4045203415444,184.51931843470084 154.22903063788544,184.60428680582845 156.18181818188168,184.57596401964838 157.0063284782227,184.6326095879631 157.7223505777074,184.49099563607888 158.19969864399172,184.49099563607888 160.06569563027006,184.4343500262621 161.12887995981146,184.4343500262621 162.2354595680954,184.3493815804395 163.9929683576338,184.3493815804395 165.51180311397184,184.26441309740767 166.07594173785765,184.2927359292371 166.96554495231248,184.1794445769192 168.24570567568298,184.09447601917782 172.2380713209277,184.12279887587647 172.43335007538553,184.20776742117596 172.49844299349934,184.4343500262621 172.62862882972695,187.06835333230265 172.7371170266997,188.0313133290183 172.8890005022986,190.07050690850883 172.9540934204124,190.80687708454207 172.93239578104112,191.65653149643913 172.97579105990008,192.08135730287177 172.9540934204124,192.59114703899832 173.0191863385262,192.84604140320153" stroke="#4dd2ff" stroke-linecap="round" stroke-linejoin="round" stroke-width="0.5"><title>2024-08-21 5.0km</title><desc>12299612024</desc></polyline><polyline fill="none" points="55.59999999997672,240.3984299323929 54.38918918929994,240.53954203636386 52.24864864873234,240.62420924923208 51.57837837853003,240.70887642486196 50.47567567578517,240.68065403705987 49.827027027029544,240.87821066446486 49.567567567690276,240.90643302330864 47.859459459548816,240.93465537797601 45.41621621628292,240.79354356332624 44.789189189323224,240.8217659344955 44.35675675678067,240.79354356332624 42.43243243242614,240.93465537797601 41.71891891898122,241.0757670893945 41.37297297292389,241.18865638422722 41.24324324331246,241.2733233119361 41.156756756827235,241.4708793319005 41.156756756827235,241.583768395285 41.28648648655508,242.23287922659074 41.30810810823459,242.684433298331 41.45945945952553,244.01086726633366 41.56756756757386,245.30907039676094 41.48108108108863,246.07105511864938 41.50270270276815,247.2281372698926 41.41621621628292,248.55453997195582 41.41621621628292,249.76804934286338 41.63243243249599,253.2674289369752 41.63243243249599,254.33980674136546 41.6972972973017,254.98887461965205 41.805405405466445,255.44039881124627 41.740540540544316,256.45632437554013 41.76216216222383,256.90784513001563 41.740540540544316,257.4440246524464 41.783783783903345,258.17774158212706 41.6972972973017,258.6010385405971 41.545945945894346,258.77035706376773 41.43783783784602,258.8267965383711 41.24324324331246,258.8832359965163 40.097297297324985,258.9961148631992 36.940540540614165,259.1372133536206 35.40540540544316,259.10899366381636 32.72432432428468,259.1654330393794 30.756756756803952,259.05255427180964 29.156756756827235,258.8267965383711 28.227027027169243,258.6010385405971 27.989189189276658,258.48815944250964 27.8594594594324,258.34706047701184 27.64324324321933,257.9237629609561 27.556756756734103,256.9925051537284 27.491891892044805,256.85140509351913 27.383783783880062,256.71030493004946 26.972972973017022,256.59742472493963 25.43783783784602,256.45632437554013 25.178378378390335,256.48454445366224 24.76756756764371,256.6256447823689 24.616216216236353,256.682084884902 24.48648648650851,256.79496504052076 24.443243243265897,257.0771651403047 24.421621621702798,258.03664238947385 24.37837837834377,258.45993965769594 24.313513513538055,258.62925830474705 24.162162162247114,258.7985768031067 23.92432432435453,258.9678951527603 23.70810810814146,259.05255427180964 20.010810810839757,259.6733866754803 18.129729729611427,259.8427042567055 16.983783783740364,259.89914341742406 15.578378378413618,259.8427042567055 14.908108108094893,259.89914341742406 14.389189189183526,259.8427042567055 13.78378378378693,259.8427042567055 13.675675675622188,259.786265079485 13.56756756757386,259.6733866754803 13.394594594603404,258.65747806474974 13.286486486438662,256.9925051537284 13.091891891905107,255.3275178624608 13.027027026982978,254.2833659530006 12.897297297255136,252.87234087359684 12.702702702605166,249.99381768536114 12.637837837799452,249.54228073598642 12.551351351314224,247.53857276290364 12.594594594556838,245.33729210680758 12.702702702605166,243.8133138496196 12.702702702605166,240.68065403705987 12.594594594556838,238.78974464493513 12.594594594556838,237.4632747470605 12.421621621586382,235.93923423324304 12.400000000023283,234.10472503938945 12.400000000023283,233.93538484891178 12.50810810807161,233.34269301066524 12.572972972993739,233.1733521506976 12.659459459362552,233.08868166492903 13.58918918913696,233.0040111419803 14.302702702814713,232.89111705347023 15.599999999976717,232.80644644364656 17.913513513514772,232.80644644364656 20.313513513538055,232.66532867812202 22.64864864863921,232.69355223949242 25.481081081088632,232.60888154296845 26.19459459464997,232.66532867812202 28.032432432519272,232.55243439124024 29.372972973040305,232.52421080924978 30.756756756803952,232.4395400382491 33.351351351477206,232.35486923014105 34.043243243242614,232.29842200402345 34.77837837836705,232.29842200402345 37.43783783784602,232.10085658257594 40.1405405405676,232.1855275022972 40.313513513538055,232.24197476140398 40.378378378460184,232.35486923014105 40.4216216217028,232.46776363265235 40.55135135143064,233.93538484891178 40.61621621623635,234.41518166892638 40.65945945947897,235.85456496251572 40.918918919051066,239.24130678274378 40.87567567569204,240.22909527127922 40.940540540614165,240.73709880842944 40.85405405412894,241.04754475539085 40.89729729737155,241.13221174504724" stroke="#4dd2ff" stroke-linecap="round" stroke-linejoin="round" stroke-width="0.5"><title>2024-08-19 5.0km</title><desc>12299612217</desc></polyline><polyline fill="none" points="121.59999999997672,240.5688093730132 121.36096579465084,240.48371628118912 119.60080482880585,240.59717372861633 115.42857142840512,240.79572410162655 113.73360160947777,240.68226677052735 112.53843058343045,240.76735977512726 111.40845070406795,240.79572410162655 110.60442655929364,240.73899544445158 109.6265593561111,240.8240884240513 107.93158953706734,240.85245274227054 107.45352112664841,241.07936713872186 107.38832997984719,241.2211885014549 107.38832997984719,242.1855710149539 107.43179074430373,242.46921201699297 107.5839034204837,242.95140076751704 107.60563380259555,243.97250239485584 107.69255533185787,245.27723553108808 107.62736418505665,246.35505192892742 107.64909456728492,246.8372310075938 107.60563380259555,249.19138221789035 107.6708249496296,250.89316045957094 107.62736418505665,251.34696546600026 107.64909456728492,252.16948433093785 107.75774647877552,253.58761210448574 107.8881287726108,254.3533967860276 107.8663983901497,255.4878870469547 107.8881287726108,256.45219854560855 107.95331991941202,257.3597814539826 107.93158953706734,258.5509775693936 107.8663983901497,258.72114784512087 107.69255533185787,258.86295629410597 106.47565392346587,259.00476463932137 104.12877263571136,259.14657288070885 102.28169014072046,259.0898495966103 97.45754527149256,259.1749345165881 96.67525150894653,259.11821124075504 95.02374245459214,258.83459461266466 94.32837022130843,258.6644244364579 94.11106639821082,258.5226158422156 93.98068410449196,258.4091688921326 93.80684104620013,258.1539130112651 93.74164989928249,257.81357131389086 93.67645875248127,256.9627144547412 93.61126760544721,256.8209046148404 93.48088531184476,256.7358186611382 93.06800804822706,256.679094671199 91.67726358142681,256.70745666830044 90.89496981876437,256.70745666830044 90.63420523121022,256.7358186611382 90.50382293760777,256.87762856330664 90.54728370218072,258.1539130112651 90.4603621729184,258.5226158422156 90.28651911462657,258.83459461266466 89.89537223323714,259.11821124075504 89.04788732388988,259.2032961482182 86.39678068412468,259.74216636118945 83.20241448679008,260.0257816607191 82.2680080482969,259.9690586340148 81.09456740424503,260.0257816607191 80.31227364181541,259.940697114449 79.89939637831412,259.9690586340148 79.7038229375612,259.9123355907068 79.57344064384233,259.79888945427956 79.52997987915296,259.6854432514665 79.46478873235174,259.2316577756719 79.2909456739435,257.10452419071225 79.20402414479759,255.54461138567422 79.09537223330699,254.5519330613315 79.09537223330699,252.93527461787744 78.8997987927869,251.34696546600026 78.85633802809753,249.95718427651445 78.72595573426224,248.73757216206286 78.70422535203397,248.19867134020024 78.74768611660693,246.1565072536032 78.70422535203397,245.0503260516416 78.74768611660693,242.69612451971625 78.70422535203397,241.76010873317136 78.70422535203397,241.24955276162655 78.63903420511633,240.68226677052735 78.59557344065979,239.09385715797544 78.53038229362573,237.98763562702516 78.53038229362573,237.07996196050954 78.40000000002328,234.555472211694 78.42173038225155,233.25066686076752 78.46519114682451,233.10883966264373 78.53038229362573,233.02374329400482 78.83460764586926,232.9386468878365 79.74728370213415,232.9386468878365 80.65995975839905,232.79681946124765 81.46398390340619,232.7684539634647 81.92032193148043,232.79681946124765 82.59396378265228,232.71172295539873 84.02816901402548,232.65499193084543 85.44064386305399,232.62662641225324 87.26599597581662,232.48479875722842 87.85271629760973,232.5415298316948 88.33078470814507,232.48479875722842 89.98229376249947,232.5698953626852 90.89496981876437,232.5415298316948 91.52515090536326,232.45643321378157 93.69818913470954,232.4280676661001 94.48048289725557,232.37133655839716 95.76257545256522,232.37133655839716 100.82575452711899,232.1444119613734 102.21649899391923,232.1160463681008 103.95492957730312,231.97421833928092 105.08490945666563,232.03094956325367 105.97585513070226,232.03094956325367 106.36700201197527,232.08768077066634 106.56257545261178,232.2011431355495 106.69295774633065,232.37133655839716 106.77987927547656,233.13720511063002 106.93199195154011,233.98816661730234 106.88853118708357,234.8958547709044 107.04064386303071,236.4559338476247 106.97545271611307,237.30688077585364 106.99718309845775,238.24291807952977 107.08410462772008,238.89530504062714 107.04064386303071,240.285165588386" stroke="#4dd2ff" stroke-linecap="round" stroke-linejoin="round" stroke-width="0.5"><title>2024-08-14 5.0km</title><desc>12299612762</desc></polyline></svg>