<?xml version="1.0" encoding="utf-8" ?>
<svg baseProfile="full" height="200mm" version="1.1" viewBox="0,0,200,200" width="200mm" xmlns="http://www.w3.org/2000/svg" xmlns:ev="http://www.w3.org/2001/xml-events" xmlns:xlink="http://www.w3.org/1999/xlink"><defs /><rect fill="#1a1a1a" height="200" width="200" x="0" y="0" /><text alignment-baseline="middle" fill="#e1ed5e" style="dominant-baseline: central; font-size:9.0px; font-family:Arial;" text-anchor="middle" x="100.0" y="100.0">2024</text><line stroke="#e1ed5e" stroke-width="0.3" x1="100.0" x2="100.0" y1="15.0" y2="10.0" /><path d="M 100.0 14.0 a86.0,86.0 0 0,1 42.35913384403234,11.155469271406648" fill="none" id="id1" stroke="none" /><text fill="#e1ed5e" style="font-size:6.75px; font-family:Arial;" text-anchor="middle"><textPath startOffset="22.145653131862478" xlink:href="#id1">January</textPath></text><line stroke="#e1ed5e" stroke-width="0.3" x1="143.13028292997686" x2="145.6673583964461" y1="26.7553504044142" y2="22.446841604673864" /><path d="M 143.63769802327073 25.89364864446614 a86.0,86.0 0 0,1 29.32050498858742,28.57503671076993" fill="none" id="id2" stroke="none" /><text fill="#e1ed5e" style="font-size:6.75px; font-family:Arial;" text-anchor="middle"><textPath startOffset="20.669276256404974" xlink:href="#id2">February</textPath></text><line stroke="#e1ed5e" stroke-width="0.3" x1="172.87174338648825" x2="177.1583165268699" y1="56.24261187166439" y2="53.66864786411523" /><path d="M 173.72905801456457 55.72781907015455 a86.0,86.0 0 0,1 12.242430191666344,42.057860355516425" fill="none" id="id3" stroke="none" /><text fill="#e1ed5e" style="font-size:6.75px; font-family:Arial;" text-anchor="middle"><textPath startOffset="22.145653131862474" xlink:href="#id3">March</textPath></text><line stroke="#e1ed5e" stroke-width="0.3" x1="184.99686870605535" x2="189.99668451229388" y1="99.2704041080226" y2="99.22748670261217" /><path d="M 185.99683186730306 99.26182062694052 a86.0,86.0 0 0,1 -10.086455211305974,41.156179273409016" fill="none" id="id4" stroke="none" /><text fill="#e1ed5e" style="font-size:6.75px; font-family:Arial;" text-anchor="middle"><textPath startOffset="21.40746469413373" xlink:href="#id4">April</textPath></text><line stroke="#e1ed5e" stroke-width="0.3" x1="174.33088141563837" x2="178.70328620479359" y1="141.23008692659167" y2="143.65538615756765" /><path d="M 175.20536237346943 141.71514677278685 a86.0,86.0 0 0,1 -30.301960400862466,31.631185727798858" fill="none" id="id5" stroke="none" /><text fill="#e1ed5e" style="font-size:6.75px; font-family:Arial;" text-anchor="middle"><textPath startOffset="22.145653131862474" xlink:href="#id5">May</textPath></text><line stroke="#e1ed5e" stroke-width="0.3" x1="143.1302829299769" x2="145.66735839644613" y1="173.24464959558577" y2="177.55315839532614" /><path d="M 143.63769802327073 174.10635135553383 a86.0,86.0 0 0,1 -40.68552437913181,11.842963189579606" fill="none" id="id6" stroke="none" /><text fill="#e1ed5e" style="font-size:6.75px; font-family:Arial;" text-anchor="middle"><textPath startOffset="21.407464694133747" xlink:href="#id6">June</textPath></text><line stroke="#e1ed5e" stroke-width="0.3" x1="101.45913802915013" x2="101.54496967792366" y1="184.9874750549273" y2="189.98673829345242" /><path d="M 101.47630435890484 185.9873277026323 a86.0,86.0 0 0,1 -42.54439059252881,-10.42667462771756" fill="none" id="id7" stroke="none" /><text fill="#e1ed5e" style="font-size:6.75px; font-family:Arial;" text-anchor="middle"><textPath startOffset="22.145653131862474" xlink:href="#id7">July</textPath></text><line stroke="#e1ed5e" stroke-width="0.3" x1="58.13341422392154" x2="55.670673884152215" y1="173.97424548756322" y2="178.32567169271397" /><path d="M 57.64086615596767 174.84453072859336 a86.0,86.0 0 0,1 -31.369924170532244,-30.572349798747897" fill="none" id="id8" stroke="none" /><text fill="#e1ed5e" style="font-size:6.75px; font-family:Arial;" text-anchor="middle"><textPath startOffset="22.145653131862474" xlink:href="#id8">August</textPath></text><path d="M 88.4268655584334 117.5232005979908 l -32.056666323896074 48.537878595701144 a79.1683377308707,79.1683377308707 0 0,0 -1.1275973181187378,-0.7586977986996972 l 32.88515993011181 -47.980431122944324" fill="#46fff4" stroke="none" /><path d="M 88.1277618465304 117.32195027204791 l -35.61671446040878 51.96585081614375 a84.0,84.0 0 0,0 -1.1824196353049383,-0.8254207367794839 l 36.503529186887484 -51.346785263559134" fill="#4dd2ff" stroke="none" /><path d="M 87.83215693770417 117.11559508785305 l -23.544011468109513 33.11760062723053 a61.633679962750264,61.633679962750264 0 0,0 -0.857057378555115,-0.6204434476935601 l 24.10904985703858 -32.70855640816391" fill="#52ff2b" stroke="none" /><path d="M 87.54013794807813 116.9041958592261 l -25.728077718263012 34.90507864521871 a64.36240881576904,64.36240881576904 0 0,0 -0.8837480099300166,-0.6631809822470118 l 26.323478717103793 -34.45827863570768" fill="#31ff2f" stroke="none" /><path d="M 87.2517909369889 116.68781488649013 l -13.813099039375002 18.08179004897794 a43.7541828340835,43.7541828340835 0 0,0 -0.5929526340567698,-0.46108355468448675 l 14.121461618067 -17.842005442672658" fill="#ffaf10" stroke="none" /><path d="M 86.40962598614128 116.0094264158162 l -32.06889527895386 37.77707800251746 a70.55322054943349,70.55322054943349 0 0,0 -0.9165888730810448,-0.7917276379040252 l 32.71266363179777 -37.22100623214871" fill="#39ff86" stroke="none" /><path d="M 86.13680546590413 115.77377054828092 l -25.644005136778105 29.178170440559015 a59.845599875834246,59.845599875834246 0 0,0 -0.7658383655891234,-0.6848173889034986 l 26.1411085291906 -28.733657521772134" fill="#69ff28" stroke="none" /><path d="M 85.86807049272751 115.53346607816431 l -33.82889572816469 37.18388235553992 a71.26962595064411,71.26962595064411 0 0,0 -0.8978962493395203,-0.831079363575999 l 34.46222174881818 -36.59768524583154" fill="#3aff8f" stroke="none" /><path d="M 85.60350026404147 115.28858382429668 l -25.001154050231246 26.550359213108116 a57.46888095607636,57.46888095607636 0 0,0 -0.7124157580665491,-0.6824781807313379 l 25.45324229416311 -26.1172689020712" fill="#88ff25" stroke="none" /><path d="M 85.34317274990678 115.03919595460226 l -12.394721240859516 12.718075908465917 a38.75890113301257,38.75890113301257 0 0,0 -0.4725043741397699,-0.46846589948236433 l 12.611217535129247 -12.503429998754893" fill="#ff5d08" stroke="none" /><path d="M 84.58840730492382 114.26474011684316 l -36.903624414036216 34.15744381850941 a71.28527083656681,71.28527083656681 0 0,0 -0.8235224095743047,-0.9051953880146064 l 37.4845445244524 -33.518910854937126" fill="#3aff8f" stroke="none" /><path d="M 84.3458050057657 113.99807769240083 l -31.61987032344624 28.274683021021705 a63.41784882818563,63.41784882818563 0 0,0 -0.7187022080311771,-0.8177511823948426 l 32.10058359543601 -27.72771956081556" fill="#3dff2e" stroke="none" /><path d="M 84.1078160697243 113.72728997021213 l -39.80815713964298 34.385338014784026 a73.60266956386776,73.60266956386776 0 0,0 -0.8177096642685694,-0.9632599284066683 l 40.39256136741866 -33.696911303927806" fill="#3dffae" stroke="none" /><path d="M 83.8745106332314 113.45245675266167 l -32.57333835334781 27.17383736528654 a63.41980443892596,63.41980443892596 0 0,0 -0.6902284775133612,-0.8419665129857239 l 33.0350136500998 -26.610668570602325" fill="#3dff2e" stroke="none" /><path d="M 83.64595745247003 113.17365903436017 l -39.828426574856785 32.082961142317615 a72.14313208132857,72.14313208132857 0 0,0 -0.7686114497739559,-0.9711154582343128 l 40.3733044552723 -31.394525740168618" fill="#3bff9b" stroke="none" /><path d="M 82.98947788004972 112.3143062007846 l -42.70134761192796 30.91248263700916 a73.71609498680738,73.71609498680738 0 0,0 -0.7332466303845391,-1.0314032126271129 l 43.22570934084246 -30.17490219767254" fill="#3dffb0" stroke="none" /><path d="M 82.78059297857968 112.02048342749411 l -32.96569016418056 23.01261197911754 a61.20344559987583,61.20344559987583 0 0,0 -0.5939947788342681,-0.8666561340682283 l 33.35587467983015 -22.443321109979262" fill="#58ff2a" stroke="none" /><path d="M 82.576782715395 111.72311816256416 l -33.78097630285358 22.72934845363208 a61.715815613844484,61.715815613844484 0 0,0 -0.583877347359311,-0.8840647219695675 l 34.16617808913362 -22.146103853323456" fill="#51ff2b" stroke="none" /><path d="M 82.37810715431573 111.42229804090321 l -37.140812678450125 24.07422605560288 a65.26068601583114,65.26068601583114 0 0,0 -0.6012756274486197,-0.9453051555764049 l 37.54860599752463 -23.433107225347804" fill="#30ff3a" stroke="none" /><path d="M 82.18462484594161 111.11811171558189 l -35.95924116149285 22.441226018748935 a63.38721092658699,63.38721092658699 0 0,0 -0.5681668447717183,-0.928057841538544 l 36.339175970719964 -21.820631061085834" fill="#3dff2e" stroke="none" /><line stroke="#e1ed5e" stroke-width="0.3" x1="26.387840678322732" x2="22.057713659400548" y1="142.50000000000003" y2="145.00000000000006" /><path d="M 25.521815274538298 143.00000000000003 a86.0,86.0 0 0,1 -11.493303480769221,-40.785679425670985" fill="none" id="id9" stroke="none" /><text fill="#e1ed5e" style="font-size:6.75px; font-family:Arial;" text-anchor="middle"><textPath startOffset="21.40746469413373" xlink:href="#id9">September</textPath></text><path d="M 81.63589988554817 110.18625677009913 l -29.95089815655482 16.61325832555575 a55.249914636039115,55.249914636039115 0 0,0 -0.4529299875214379,-0.8333401624717649 l 30.231673493691588 -16.0966633296094" fill="#a5ff21" stroke="none" /><path d="M 81.29705330413844 109.54985784667822 l -18.51252091544116 9.452625086358166 a41.78618655905633,41.78618655905633 0 0,0 -0.3207191036256785,-0.6416530484616185 l 18.672059932278575 -9.133440181732793" fill="#ff8f0d" stroke="none" /><path d="M 81.1358732173502 109.22738970284198 l -37.320111508260766 18.25513667332695 a62.545646437994726,62.545646437994726 0 0,0 -0.46349523381227276,-0.9685267748520083 l 37.62798600003295 -17.611797396409838" fill="#47ff2c" stroke="none" /><path d="M 80.9802524753101 108.90220220490708 l -49.73001253304844 23.276156881003516 a75.90768275647991,75.90768275647991 0 0,0 -0.5422538881107604,-1.184922606767914 l 50.12225088601425 -22.419045292020915" fill="#41ffcc" stroke="none" /><path d="M 80.5471966667186 107.91128576633889 l -50.25845954469482 20.439677964245007 a75.25581250970046,75.25581250970046 0 0,0 -0.47640987769240417,-1.2008641057508225 l 50.60192809735335 -19.57391284128062" fill="#40ffc4" stroke="none" /><path d="M 80.41425534168474 107.57618678355246 l -31.147504899419758 12.048524019710065 a54.396616483004806,54.396616483004806 0 0,0 -0.3294085962358144,-0.8737954376110255 l 31.349744179470008 -11.512060301904894" fill="#b1ff20" stroke="none" /><path d="M 80.28708602549918 107.23885506374661 l -36.97448747463101 13.577543950700761 a60.38860779140152,60.38860779140152 0 0,0 -0.3489881510879759,-0.9761819703811211 l 37.20211579576293 -12.940827023938718" fill="#62ff29" stroke="none" /><path d="M 80.16572619554312 106.89939002012753 l -39.00053000600098 13.566408841377568 a62.292720782244295,62.292720782244295 0 0,0 -0.34265320858434206,-1.0129933256945247 l 39.22766863615769 -12.894913841208881" fill="#4aff2c" stroke="none" /><path d="M 80.05021161711548 106.5578916946017 l -51.11703654436815 16.803185225491294 a74.80797765016297,74.80797765016297 0 0,0 -0.39055209008592306,-1.2233988596184877 l 51.39795335023132 -15.923217332181414" fill="#3fffbe" stroke="none" /><path d="M 79.94057633289273 106.21446072829308 l -38.23214692411566 11.84441684672343 a61.02483315225827,61.02483315225827 0 0,0 -0.30141525074841563,-1.0033133397440455 l 38.42983849486771 -11.186365903388662" fill="#5aff2a" stroke="none" /><path d="M 79.83685265289637 105.86919833188381 l -34.81655742596101 10.134592444752458 a57.261586217600495,57.261586217600495 0 0,0 -0.26662496412184317,-0.9461579372501336 l 34.98540088215743 -9.53542658359933" fill="#8aff24" stroke="none" /><path d="M 79.73907114497094 105.5222062557868 l -11.989262354909792 3.2677267687122087 a33.42660251435667,33.42660251435667 0 0,0 -0.1461387491322341,-0.5549126337659918 l 12.04359058484676 -3.0614336305734144" fill="#ff0000" stroke="none" /><path d="M 79.56144815229197 104.8234425847677 l -50.46606140537289 11.909853079707037 a72.85236690982461,72.85236690982461 0 0,0 -0.27680131377236566,-1.2196376617509967 l 50.66307358070292 -11.041781084017014" fill="#3cffa4" stroke="none" /><path d="M 79.48165901384964 104.47187691870673 l -21.16099211311066 4.611939740714339 a42.65773707900047,42.65773707900047 0 0,0 -0.14979424682179918,-0.7168196971700797 l 21.237044070756827 -4.248003592258851" fill="#ff9d0e" stroke="none" /><path d="M 79.407916724674 104.11899336999214 l -51.84295868524958 10.370043683787443 a73.86993636504734,73.86993636504734 0 0,0 -0.23805011822399438,-1.2455788089531212 l 52.01333509575573 -9.478562309801006" fill="#3effb2" stroke="none" /><path d="M 79.22317932658666 103.0534771498775 l -17.58242077288823 2.5840103697023213 a38.771286667701375,38.771286667701375 0 0,0 -0.09112264748861162,-0.6593180845315382 l 17.624187936932053 -2.2818039769706977" fill="#ff5d08" stroke="none" /><path d="M 79.17382384314188 102.69636545807758 l -42.87031027986621 5.550419959241248 a64.22812354493249,64.22812354493249 0 0,0 -0.13218121443184322,-1.0946500731464968 l 42.95927358055771 -4.813676209171352" fill="#33ff2f" stroke="none" /><path d="M 79.13060592940153 102.33845913500099 l -53.45389360053893 5.989620272092845 a74.78842154275958,74.78842154275958 0 0,0 -0.1320108503172725,-1.2770852262300656 l 53.548836843337874 -5.071130523579847" fill="#3fffbe" stroke="none" /><path d="M 79.0935383218832 101.97986365728391 l -53.30871917079703 5.048391130340827 a74.54722955145118,74.54722955145118 0 0,0 -0.10971356206453702,-1.2750378967303015 l 53.38752635555931 -4.132532186234863" fill="#3fffbb" stroke="none" /><path d="M 79.06263194458094 101.62068470465958 l -17.58309965454935 1.361043116556267 a38.635697656371256,38.635697656371256 0 0,0 -0.04550924369727451,-0.6616944154523118 l 17.60387285941169 -1.0590052769496119" fill="#ff5b08" stroke="none" /><line stroke="#e1ed5e" stroke-width="0.3" x1="15.003131293944662" x2="10.003315487706104" y1="100.72959589197737" y2="100.7725132973878" /><path d="M 14.003168132696942 100.73817937305945 a86.0,86.0 0 0,1 10.791469493833615,-42.45332614584628" fill="none" id="id10" stroke="none" /><text fill="#e1ed5e" style="font-size:6.75px; font-family:Arial;" text-anchor="middle"><textPath startOffset="22.145653131862435" xlink:href="#id10">October</textPath></text><line stroke="#e1ed5e" stroke-width="0.3" x1="26.387840678322718" x2="22.05771365940052" y1="57.49999999999999" y2="54.99999999999999" /><path d="M 25.521815274538284 56.99999999999999 a86.0,86.0 0 0,1 29.574782752854787,-30.34633250058573" fill="none" id="id11" stroke="none" /><text fill="#e1ed5e" style="font-size:6.75px; font-family:Arial;" text-anchor="middle"><textPath startOffset="21.40746469413373" xlink:href="#id11">November</textPath></text><line stroke="#e1ed5e" stroke-width="0.3" x1="56.869717070023135" x2="54.33264160355391" y1="26.7553504044142" y2="22.446841604673864" /><path d="M 56.362301976729285 25.89364864446614 a86.0,86.0 0 0,1 42.16139366436587,-11.88097634709845" fill="none" id="id12" stroke="none" /><text fill="#e1ed5e" style="font-size:6.75px; font-family:Arial;" text-anchor="middle"><textPath startOffset="22.145653131862474" xlink:href="#id12">December</textPath></text></svg>